TITLE ""
FILE "P1Q_t_0859-0867.mp3" MP3
  TRACK 01 AUDIO
    TITLE "P1Q_t_0859-0867_01"
    INDEX 01 00:00:00
  TRACK 02 AUDIO
    TITLE "P1Q_t_0859-0867_02"
    INDEX 01 00:01:18
  TRACK 03 AUDIO
    TITLE "P1Q_t_0859-0867_03"
    INDEX 01 00:01:39
  TRACK 04 AUDIO
    TITLE "P1Q_t_0859-0867_04"
    INDEX 01 00:03:69
  TRACK 05 AUDIO
    TITLE "P1Q_t_0859-0867_05"
    INDEX 01 00:04:16
  TRACK 06 AUDIO
    TITLE "P1Q_t_0859-0867_06"
    INDEX 01 00:08:10
  TRACK 07 AUDIO
    TITLE "P1Q_t_0859-0867_07"
    INDEX 01 00:08:57
  TRACK 08 AUDIO
    TITLE "P1Q_t_0859-0867_08"
    INDEX 01 00:09:54
  TRACK 09 AUDIO
    TITLE "P1Q_t_0859-0867_09"
    INDEX 01 00:10:03
  TRACK 10 AUDIO
    TITLE "P1Q_t_0859-0867_10"
    INDEX 01 00:12:06
  TRACK 11 AUDIO
    TITLE "P1Q_t_0859-0867_11"
    INDEX 01 00:12:25
  TRACK 12 AUDIO
    TITLE "P1Q_t_0859-0867_12"
    INDEX 01 00:16:13
  TRACK 13 AUDIO
    TITLE "P1Q_t_0859-0867_13"
    INDEX 01 00:16:58
  TRACK 14 AUDIO
    TITLE "P1Q_t_0859-0867_14"
    INDEX 01 00:18:08
  TRACK 15 AUDIO
    TITLE "P1Q_t_0859-0867_15"
    INDEX 01 00:18:30
  TRACK 16 AUDIO
    TITLE "P1Q_t_0859-0867_16"
    INDEX 01 00:20:37
  TRACK 17 AUDIO
    TITLE "P1Q_t_0859-0867_17"
    INDEX 01 00:20:54
  TRACK 18 AUDIO
    TITLE "P1Q_t_0859-0867_18"
    INDEX 01 00:25:28
  TRACK 19 AUDIO
    TITLE "P1Q_t_0859-0867_19"
    INDEX 01 00:26:02
  TRACK 20 AUDIO
    TITLE "P1Q_t_0859-0867_20"
    INDEX 01 00:27:21
  TRACK 21 AUDIO
    TITLE "P1Q_t_0859-0867_21"
    INDEX 01 00:27:48
  TRACK 22 AUDIO
    TITLE "P1Q_t_0859-0867_22"
    INDEX 01 00:31:56
  TRACK 23 AUDIO
    TITLE "P1Q_t_0859-0867_23"
    INDEX 01 00:32:01
  TRACK 24 AUDIO
    TITLE "P1Q_t_0859-0867_24"
    INDEX 01 00:36:04
  TRACK 25 AUDIO
    TITLE "P1Q_t_0859-0867_25"
    INDEX 01 00:36:57
  TRACK 26 AUDIO
    TITLE "P1Q_t_0859-0867_26"
    INDEX 01 00:38:05
  TRACK 27 AUDIO
    TITLE "P1Q_t_0859-0867_27"
    INDEX 01 00:38:50
  TRACK 28 AUDIO
    TITLE "P1Q_t_0859-0867_28"
    INDEX 01 00:39:61
  TRACK 29 AUDIO
    TITLE "P1Q_t_0859-0867_29"
    INDEX 01 00:40:12
  TRACK 30 AUDIO
    TITLE "P1Q_t_0859-0867_30"
    INDEX 01 00:44:62
  TRACK 31 AUDIO
    TITLE "P1Q_t_0859-0867_31"
    INDEX 01 00:45:07
  TRACK 32 AUDIO
    TITLE "P1Q_t_0859-0867_32"
    INDEX 01 00:48:72
  TRACK 33 AUDIO
    TITLE "P1Q_t_0859-0867_33"
    INDEX 01 00:49:44
  TRACK 34 AUDIO
    TITLE "P1Q_t_0859-0867_34"
    INDEX 01 00:51:08
  TRACK 35 AUDIO
    TITLE "P1Q_t_0859-0867_35"
    INDEX 01 00:51:27
  TRACK 36 AUDIO
    TITLE "P1Q_t_0859-0867_36"
    INDEX 01 00:54:47
  TRACK 37 AUDIO
    TITLE "P1Q_t_0859-0867_37"
    INDEX 01 00:54:67
  TRACK 38 AUDIO
    TITLE "P1Q_t_0859-0867_38"
    INDEX 01 00:59:37
  TRACK 39 AUDIO
    TITLE "P1Q_t_0859-0867_39"
    INDEX 01 01:00:12
  TRACK 40 AUDIO
    TITLE "P1Q_t_0859-0867_40"
    INDEX 01 01:01:30
  TRACK 41 AUDIO
    TITLE "P1Q_t_0859-0867_41"
    INDEX 01 01:01:51
  TRACK 42 AUDIO
    TITLE "P1Q_t_0859-0867_42"
    INDEX 01 01:04:51
  TRACK 43 AUDIO
    TITLE "P1Q_t_0859-0867_43"
    INDEX 01 01:04:71
  TRACK 44 AUDIO
    TITLE "P1Q_t_0859-0867_44"
    INDEX 01 01:08:47
  TRACK 45 AUDIO
    TITLE "P1Q_t_0859-0867_45"
    INDEX 01 01:09:19
  TRACK 46 AUDIO
    TITLE "P1Q_t_0859-0867_46"
    INDEX 01 01:10:32
  TRACK 47 AUDIO
    TITLE "P1Q_t_0859-0867_47"
    INDEX 01 01:10:52
  TRACK 48 AUDIO
    TITLE "P1Q_t_0859-0867_48"
    INDEX 01 01:14:15
  TRACK 49 AUDIO
    TITLE "P1Q_t_0859-0867_49"
    INDEX 01 01:14:34
  TRACK 50 AUDIO
    TITLE "P1Q_t_0859-0867_50"
    INDEX 01 01:18:20
  TRACK 51 AUDIO
    TITLE "P1Q_t_0859-0867_51"
    INDEX 01 01:18:67
  TRACK 52 AUDIO
    TITLE "P1Q_t_0859-0867_52"
    INDEX 01 01:20:29
  TRACK 53 AUDIO
    TITLE "P1Q_t_0859-0867_53"
    INDEX 01 01:20:49
  TRACK 54 AUDIO
    TITLE "P1Q_t_0859-0867_54"
    INDEX 01 01:24:33
  TRACK 55 AUDIO
    TITLE "P1Q_t_0859-0867_55"
    INDEX 01 01:24:52
  TRACK 56 AUDIO
    TITLE "P1Q_t_0859-0867_56"
    INDEX 01 01:28:42
